<svg xmlns="http://www.w3.org/2000/svg" viewBox="0 0 843.02 742.82"><defs><style>.cls-1{fill:none;stroke:#f3d7a1;stroke-linecap:round;stroke-miterlimit:10;stroke-width:100px;}</style></defs><g id="图层_2" data-name="图层 2"><g id="图层_1-2" data-name="图层 1"><path class="cls-1" d="M50,276.66l544.84-219a106.81,106.81,0,0,1,62.65-5.23l1.48.32a105.82,105.82,0,0,1,57.94,34.4c34.94,40.58,32.68,105.25-3.32,144.9-12.11,13.34-29.49,27-42.37,32.24l-527,213.61c-13.86,5.62-34.16,20.25-48.12,40.24-30.34,43.46-31.64,100,3.78,139.39a106,106,0,0,0,50,31.13h0a106.67,106.67,0,0,0,69.11-3.55L793,455"/></g></g></svg>